<svg xmlns="http://www.w3.org/2000/svg" xml:space="preserve" id="Layer_1" x="0" y="0" style="enable-background:new 0 0 120 120" version="1.1" viewBox="20 20 80 80">
  <style>
    .st1{
      fill:none;
      stroke:#fff;
      stroke-width:6;
      stroke-linecap:round;
      stroke-linejoin:
      round;
      stroke-miterlimit:10
    }
    .label {
      fill: #ffffff;
      stroke: #ffffff;
      font-family: 'NokiaPureHeadlineLight', Arial, sans-serif;
      font-size: 22px;
      font-weight: normal;
      text-anchor: middle;
      dominant-baseline: middle;
    }
  </style>
  <path d="M0 0h120v120H0z" style="fill:none"/>
  <path d="M80 31.8c-10.4-7.4-24.5-8.7-36.4-2.2-10.9 5.9-17.4 16.8-18 28.4M40 88.1c10.4 7.3 24.4 8.7 36.4 2.2 10.9-5.9 17.4-16.9 18-28.4" class="st1"/>
  <path d="m69.4 37 9.2-3.7c1.6-.6 2.3-2.1 1.8-3.8l-2.8-9.9M50.5 83l-9.2 3.7c-1.6.6-2.3 2.1-1.8 3.8l2.8 9.9" class="st1"/>
  <circle cx="28.8" cy="74.6" r="5.7" class="st1"/>
  <circle cx="91.2" cy="45.1" r="5.7" class="st1"/>
  <text x="62" y="62" class="label">NSP</text>
</svg>
