<?xml version="1.0" encoding="UTF-8"?><svg id="Art" xmlns="http://www.w3.org/2000/svg" viewBox="0 0 576 129.8"><g id="Logo"><path id="Wordmark" d="m398.2,3.9v121.9s19.1,0,19.1,0V3.9h-19.1ZM194.2,1.9c-37.2,0-66,25.9-66,63s28.9,63,66,63c37.2,0,66.1-24.3,66-63,0-35.2-28.9-63-66-63Zm47,63c0,27.5-21,45.7-47,45.7s-47-18.2-47-45.7,21-45.7,47-45.7,47,18.7,47,45.7ZM0,0v125.8h19.5V42.7s101.2,87.1,101.2,87.1v-26.1L0,0Zm274.6,64.9l70.8,60.9h28.4s-71-60.9-71-60.9L373.9,3.9h-28.4l-70.8,60.9Zm301.4,60.9h-21l-15.4-27h-69.6l-15.4,27h-21l25.4-45h70.5l-35.1-62.5,10.4-18.3h0s0,0,0,0l71.1,125.8Z"/></g></svg>