<svg width="912" height="729" xmlns="http://www.w3.org/2000/svg" xmlns:xlink="http://www.w3.org/1999/xlink" xml:space="preserve" overflow="hidden"><g transform="translate(-1439 -600)"><g><path d="M1516.04 1062 1516.39 1054.99 1517.44 1048.14 1519.14 1041.51 1521.69 1034.54 1527.75 1023.39 1536.17 1013.17 1546.39 1004.75 1557.54 998.693 1564.51 996.142 1571.14 994.438 1577.99 993.393 1585 993.039 1592.01 993.393 1598.86 994.438 1605.49 996.142 1612.46 998.693 1623.61 1004.75 1633.83 1013.17 1642.25 1023.39 1648.31 1034.54 1650.86 1041.51 1652.56 1048.14 1653.61 1054.99 1653.96 1062 1653.61 1069.01 1652.56 1075.86 1650.86 1082.49 1648.31 1089.46 1642.25 1100.61 1633.83 1110.83 1623.61 1119.25 1612.46 1125.31 1605.49 1127.86 1598.86 1129.56 1592.01 1130.61 1585 1130.96 1577.99 1130.61 1571.14 1129.56 1564.51 1127.86 1557.54 1125.31 1546.39 1119.25 1536.17 1110.83 1527.75 1100.61 1521.69 1089.46 1519.14 1082.49 1517.44 1075.86 1516.39 1069.01ZM1570.11 1064.94 1569.84 1062.23 1570.47 1066.4 1569.93 1063.76 1570.97 1067.78 1570.17 1065.23 1571.59 1069.09 1569.97 1065.5 1573.84 1072.64 1570.94 1068.35 1576.07 1074.56 1572.44 1070.93 1578.65 1076.06 1574.36 1073.16 1581.5 1077.03 1577.91 1075.41 1581.77 1076.83 1579.22 1076.03 1583.24 1077.07 1580.6 1076.53 1584.77 1077.16 1582.06 1076.89 1586.36 1077.11 1583.64 1077.11 1587.94 1076.89 1585.23 1077.16 1589.4 1076.53 1586.76 1077.07 1590.78 1076.03 1588.23 1076.83 1592.09 1075.41 1588.5 1077.03 1595.64 1073.16 1591.35 1076.06 1597.56 1070.93 1593.93 1074.56 1599.06 1068.35 1596.16 1072.64 1600.03 1065.5 1598.41 1069.09 1599.83 1065.23 1599.03 1067.78 1600.07 1063.76 1599.53 1066.4 1600.16 1062.23 1599.89 1064.94 1600.11 1060.64 1600.11 1063.36 1599.89 1059.06 1600.16 1061.77 1599.53 1057.6 1600.07 1060.24 1599.03 1056.22 1599.83 1058.77 1598.41 1054.91 1600.03 1058.5 1596.16 1051.36 1599.06 1055.65 1593.93 1049.44 1597.56 1053.07 1591.35 1047.94 1595.64 1050.84 1588.5 1046.97 1592.09 1048.59 1588.23 1047.17 1590.78 1047.97 1586.76 1046.93 1589.4 1047.47 1585.23 1046.84 1587.94 1047.11 1583.64 1046.89 1586.36 1046.89 1582.06 1047.11 1584.77 1046.84 1580.6 1047.47 1583.24 1046.93 1579.22 1047.97 1581.77 1047.17 1577.91 1048.59 1581.5 1046.97 1574.36 1050.84 1578.65 1047.94 1572.44 1053.07 1576.07 1049.44 1570.94 1055.65 1573.84 1051.36 1569.97 1058.5 1571.59 1054.91 1570.17 1058.77 1570.97 1056.22 1569.93 1060.24 1570.47 1057.6 1569.84 1061.77 1570.11 1059.06 1569.89 1063.36 1569.89 1060.64Z" fill="#000000" fill-rule="nonzero" fill-opacity="1"/><path d="M2134.04 866.5 2134.39 859.469 2135.43 852.598 2137.12 845.948 2139.65 838.956 2145.67 827.728 2154.06 817.432 2164.27 808.914 2175.43 802.78 2182.42 800.191 2189.08 798.46 2195.96 797.398 2203 797.038 2210.04 797.398 2216.92 798.46 2223.58 800.191 2230.57 802.78 2241.74 808.914 2251.94 817.432 2260.33 827.728 2266.35 838.956 2268.88 845.948 2270.57 852.598 2271.61 859.469 2271.96 866.5 2271.61 873.531 2270.57 880.402 2268.88 887.052 2266.35 894.044 2260.33 905.272 2251.94 915.568 2241.74 924.086 2230.57 930.22 2223.58 932.809 2216.92 934.54 2210.04 935.602 2203 935.962 2195.96 935.602 2189.08 934.54 2182.42 932.809 2175.43 930.22 2164.27 924.086 2154.06 915.568 2145.67 905.272 2139.65 894.044 2137.12 887.052 2135.43 880.402 2134.39 873.531ZM2188.11 869.503 2187.84 866.829 2188.48 871.049 2187.95 868.434 2188.99 872.507 2188.21 869.979 2189.62 873.884 2188.03 870.315 2191.9 877.534 2189.04 873.246 2194.17 879.536 2190.56 875.882 2196.77 881.071 2192.48 878.14 2199.61 882.059 2196 880.409 2199.86 881.838 2197.29 881.03 2201.32 882.077 2198.65 881.525 2202.82 882.169 2200.08 881.888 2204.37 882.108 2201.63 882.108 2205.92 881.888 2203.18 882.169 2207.35 881.525 2204.68 882.077 2208.71 881.03 2206.14 881.838 2210 880.409 2206.39 882.059 2213.52 878.14 2209.23 881.071 2215.44 875.882 2211.83 879.536 2216.96 873.246 2214.1 877.534 2217.97 870.315 2216.38 873.884 2217.79 869.979 2217.01 872.507 2218.05 868.434 2217.52 871.049 2218.16 866.829 2217.89 869.503 2218.11 865.158 2218.11 867.842 2217.89 863.497 2218.16 866.17 2217.52 861.951 2218.05 864.566 2217.01 860.493 2217.79 863.021 2216.38 859.116 2217.97 862.685 2214.1 855.466 2216.96 859.754 2211.83 853.464 2215.44 857.118 2209.23 851.928 2213.52 854.86 2206.39 850.941 2210 852.591 2206.14 851.162 2208.71 851.97 2204.68 850.923 2207.35 851.475 2203.18 850.831 2205.92 851.111 2201.63 850.892 2204.37 850.892 2200.08 851.111 2202.82 850.831 2198.65 851.475 2201.32 850.923 2197.29 851.97 2199.86 851.162 2196 852.591 2199.61 850.941 2192.48 854.86 2196.77 851.928 2190.56 857.118 2194.17 853.464 2189.04 859.754 2191.9 855.466 2188.03 862.685 2189.62 859.116 2188.21 863.021 2188.99 860.493 2187.95 864.566 2188.48 861.95 2187.84 866.17 2188.11 863.497 2187.89 867.842 2187.89 865.158Z" fill="#000000" fill-rule="nonzero" fill-opacity="1"/><path d="M2253.79 955.639 2253.85 973.585 2253 992.002 2251.24 1010.19 2248.6 1028.11 2245.09 1045.76 2240.75 1063.09 2235.59 1080.09 2229.64 1096.73 2222.91 1112.99 2215.43 1128.85 2207.23 1144.27 2198.31 1159.24 2188.71 1173.73 2178.45 1187.73 2167.55 1201.2 2156.03 1214.13 2143.9 1226.49 2131.21 1238.26 2117.95 1249.41 2104.16 1259.93 2089.85 1269.79 2075.06 1278.96 2059.79 1287.43 2044.07 1295.16 2027.93 1302.14 2011.38 1308.33 1994.46 1313.72 1977.17 1318.29 1959.56 1322 1941.63 1324.83 1923.42 1326.77 1905.07 1327.78 1892.55 1327.93 1880.19 1327.65 1867.91 1326.94 1855.7 1325.82 1843.57 1324.28 1831.32 1322.3 1807.81 1317.25 1784.58 1310.59 1761.91 1302.39 1739.89 1292.7 1716.65 1280.56 1681.07 1250.06 1716.12 1209.17 1749.37 1237.67 1744.32 1234.25 1764.03 1244.55 1762.4 1243.77 1782.76 1252.73 1781.08 1252.05 1802.04 1259.63 1800.31 1259.07 1821.79 1265.24 1820.01 1264.79 1841.95 1269.5 1840.6 1269.25 1851.71 1271.05 1850.8 1270.91 1862.01 1272.33 1861.09 1272.23 1872.38 1273.27 1871.45 1273.2 1882.81 1273.85 1881.88 1273.82 1893.3 1274.08 1892.37 1274.07 1903.85 1273.93 1902.69 1273.97 1919.79 1273.03 1918.41 1273.14 1935.26 1271.35 1933.9 1271.53 1950.47 1268.91 1949.12 1269.16 1965.41 1265.73 1964.08 1266.04 1980.05 1261.83 1978.76 1262.2 1994.4 1257.22 1993.13 1257.66 2008.42 1251.94 2007.18 1252.44 2022.1 1245.99 2020.89 1246.54 2035.42 1239.4 2034.25 1240.01 2048.37 1232.18 2047.24 1232.84 2060.92 1224.36 2059.83 1225.07 2073.07 1215.96 2072.02 1216.72 2084.78 1206.98 2083.77 1207.79 2096.04 1197.47 2095.07 1198.32 2106.83 1187.43 2105.91 1188.32 2117.13 1176.88 2116.25 1177.82 2126.92 1165.85 2126.09 1166.82 2136.18 1154.35 2135.4 1155.37 2144.9 1142.41 2144.17 1143.46 2153.05 1130.04 2152.37 1131.13 2160.62 1117.27 2159.99 1118.4 2167.58 1104.12 2167 1105.28 2173.92 1090.61 2173.4 1091.8 2179.62 1076.75 2179.15 1077.97 2184.66 1062.57 2184.25 1063.82 2189.03 1048.08 2188.67 1049.36 2192.69 1033.32 2192.4 1034.62 2195.64 1018.28 2195.42 1019.6 2197.86 1003 2197.7 1004.33 2199.33 987.487 2199.23 988.831 2200.03 971.763 2200 973.113 2199.93 955.843ZM1658.59 1304.79 1605.85 1132.03 1775.7 1193.49Z" fill="#000000" fill-rule="nonzero" fill-opacity="1"/><path d="M1535.36 979.868 1535.07 961.924 1535.7 943.498 1537.24 925.293 1539.66 907.334 1542.94 889.648 1547.07 872.261 1552.02 855.197 1557.77 838.482 1564.3 822.14 1571.58 806.194 1579.59 790.67 1588.32 775.589 1597.74 760.976 1607.83 746.854 1618.56 733.245 1629.92 720.174 1641.89 707.662 1654.45 695.735 1667.56 684.414 1681.22 673.724 1695.4 663.688 1710.09 654.33 1725.25 645.674 1740.87 637.745 1756.92 630.566 1773.39 624.163 1790.25 618.559 1807.48 613.78 1825.04 609.848 1842.93 606.788 1861.11 604.623 1879.46 603.385 1892.12 603.076 1904.63 603.21 1917.07 603.779 1929.43 604.777 1941.71 606.2 1953.9 608.042 1965.98 610.298 1978.18 613.013 2001.51 619.484 2024.5 627.588 2046.84 637.22 2070.35 649.306 2107.75 680.749 2073.1 721.97 2038.02 692.479 2043.04 695.816 2023.03 685.534 2024.69 686.313 2004.02 677.407 2005.73 678.074 1984.48 670.581 1986.23 671.134 1964.45 665.094 1965.8 665.43 1954.73 662.966 1955.64 663.152 1944.47 661.067 1945.39 661.222 1934.13 659.519 1935.05 659.643 1923.7 658.328 1924.63 658.419 1913.2 657.496 1914.14 657.555 1902.64 657.03 1903.58 657.056 1892.02 656.932 1892.96 656.926 1881.35 657.209 1882.51 657.156 1865.43 658.309 1866.8 658.181 1849.98 660.183 1851.34 659.987 1834.8 662.816 1836.14 662.551 1819.9 666.185 1821.22 665.855 1805.3 670.272 1806.59 669.878 1791.02 675.056 1792.28 674.6 1777.06 680.518 1778.29 680.003 1763.46 686.638 1764.65 686.066 1750.21 693.396 1751.38 692.771 1737.36 700.774 1738.48 700.097 1724.9 708.752 1725.98 708.024 1712.86 717.309 1713.9 716.534 1701.26 726.426 1702.26 725.606 1690.12 736.083 1691.07 735.219 1679.45 746.26 1680.36 745.353 1669.28 756.936 1670.15 755.988 1659.63 768.091 1660.45 767.104 1650.51 779.705 1651.28 778.678 1641.94 791.755 1642.66 790.691 1633.94 804.222 1634.61 803.123 1626.53 817.086 1627.15 815.951 1619.73 830.324 1620.3 829.157 1613.55 843.918 1614.07 842.719 1608.03 857.846 1608.48 856.617 1603.16 872.089 1603.56 870.833 1598.98 886.627 1599.31 885.346 1595.49 901.441 1595.77 900.139 1592.73 916.512 1592.94 915.191 1590.7 931.821 1590.84 930.486 1589.42 947.35 1589.5 946.005 1588.92 963.082 1588.93 961.732 1589.21 979ZM2130.45 626.201 2183.15 798.974 2013.31 737.473Z" fill="#000000" fill-rule="nonzero" fill-opacity="1"/><path d="M1699.04 847 1699.56 836.717 1701.09 826.689 1703.58 816.995 1706.98 807.7 1711.24 798.864 1716.3 790.538 1722.1 782.772 1728.61 775.612 1735.77 769.105 1743.54 763.298 1751.86 758.24 1760.7 753.983 1769.99 750.581 1779.69 748.088 1789.72 746.558 1800 746.039 1810.28 746.558 1820.31 748.088 1830.01 750.581 1839.3 753.983 1848.14 758.24 1856.46 763.298 1864.23 769.105 1871.39 775.612 1877.9 782.772 1883.7 790.538 1888.76 798.863 1893.02 807.7 1896.42 816.995 1898.91 826.689 1900.44 836.717 1900.96 847 1900.44 857.283 1898.91 867.311 1896.42 877.005 1893.02 886.3 1888.76 895.137 1883.7 903.462 1877.9 911.228 1871.39 918.388 1864.23 924.895 1856.46 930.702 1848.14 935.76 1839.3 940.017 1830.01 943.419 1820.31 945.912 1810.28 947.442 1800 947.961 1789.72 947.442 1779.69 945.912 1769.99 943.419 1760.7 940.017 1751.86 935.76 1743.54 930.702 1735.77 924.895 1728.61 918.388 1722.1 911.228 1716.3 903.462 1711.24 895.137 1706.98 886.3 1703.58 877.005 1701.09 867.311 1699.56 857.283ZM1753.27 853.208 1753 850.504 1754.12 857.851 1753.58 855.208 1755.41 862.3 1754.61 859.75 1757.1 866.549 1756.07 864.118 1759.19 870.587 1757.94 868.292 1761.65 874.393 1760.2 872.248 1764.46 877.945 1762.82 875.96 1767.6 881.215 1765.78 879.399 1771.04 884.175 1769.05 882.537 1774.75 886.797 1772.61 885.349 1778.71 889.055 1776.41 887.809 1782.88 890.926 1780.45 889.898 1787.25 892.386 1784.7 891.594 1791.79 893.418 1789.15 892.878 1796.5 893.999 1793.79 893.725 1801.36 894.107 1798.64 894.107 1806.21 893.725 1803.5 893.999 1810.85 892.878 1808.21 893.418 1815.3 891.594 1812.75 892.386 1819.55 889.898 1817.12 890.926 1823.59 887.81 1821.29 889.055 1827.39 885.349 1825.25 886.797 1830.95 882.537 1828.96 884.175 1834.22 879.399 1832.4 881.215 1837.18 875.96 1835.54 877.945 1839.8 872.248 1838.35 874.393 1842.06 868.292 1840.81 870.587 1843.93 864.118 1842.9 866.549 1845.39 859.75 1844.59 862.3 1846.42 855.208 1845.88 857.851 1847 850.504 1846.73 853.208 1847.11 845.642 1847.11 848.358 1846.73 840.792 1847 843.497 1845.88 836.149 1846.42 838.792 1844.59 831.7 1845.39 834.25 1842.9 827.451 1843.93 829.882 1840.81 823.413 1842.06 825.708 1838.35 819.607 1839.8 821.752 1835.54 816.055 1837.18 818.04 1832.4 812.785 1834.22 814.601 1828.96 809.825 1830.95 811.463 1825.25 807.203 1827.39 808.651 1821.29 804.945 1823.59 806.191 1817.12 803.074 1819.55 804.102 1812.75 801.614 1815.3 802.406 1808.21 800.582 1810.85 801.122 1803.5 800.001 1806.21 800.275 1798.64 799.893 1801.36 799.893 1793.79 800.275 1796.5 800.001 1789.15 801.122 1791.79 800.582 1784.7 802.406 1787.25 801.614 1780.45 804.102 1782.88 803.074 1776.41 806.191 1778.71 804.945 1772.61 808.651 1774.75 807.203 1769.05 811.463 1771.04 809.825 1765.78 814.601 1767.6 812.785 1762.82 818.04 1764.46 816.055 1760.2 821.752 1761.65 819.607 1757.94 825.708 1759.19 823.414 1756.07 829.882 1757.1 827.451 1754.61 834.25 1755.41 831.7 1753.58 838.792 1754.12 836.149 1753 843.497 1753.27 840.792 1752.89 848.358 1752.89 845.642Z" fill="#000000" fill-rule="nonzero" fill-opacity="1"/><path d="M1894.04 1107.5 1894.56 1097.18 1896.08 1087.12 1898.57 1077.4 1901.96 1068.07 1906.2 1059.19 1911.25 1050.83 1917.05 1043.02 1923.55 1035.82 1930.7 1029.28 1938.47 1023.43 1946.8 1018.34 1955.64 1014.05 1964.95 1010.62 1974.65 1008.11 1984.7 1006.56 1995 1006.04 2005.3 1006.56 2015.35 1008.11 2025.05 1010.62 2034.36 1014.05 2043.2 1018.34 2051.53 1023.43 2059.3 1029.28 2066.45 1035.82 2072.95 1043.02 2078.75 1050.83 2083.8 1059.19 2088.04 1068.07 2091.43 1077.4 2093.92 1087.12 2095.44 1097.18 2095.96 1107.5 2095.44 1117.82 2093.92 1127.88 2091.43 1137.61 2088.04 1146.94 2083.8 1155.81 2078.75 1164.17 2072.95 1171.98 2066.45 1179.18 2059.3 1185.72 2051.53 1191.57 2043.2 1196.66 2034.36 1200.95 2025.05 1204.38 2015.35 1206.9 2005.3 1208.44 1995 1208.96 1984.7 1208.44 1974.65 1206.9 1964.95 1204.38 1955.64 1200.95 1946.8 1196.66 1938.47 1191.57 1930.7 1185.72 1923.55 1179.18 1917.05 1171.98 1911.25 1164.17 1906.2 1155.81 1901.96 1146.94 1898.57 1137.61 1896.08 1127.88 1894.56 1117.82ZM1948.28 1113.77 1948 1111.08 1949.13 1118.48 1948.59 1115.85 1950.42 1122.99 1949.63 1120.45 1952.12 1127.3 1951.1 1124.88 1954.22 1131.39 1952.99 1129.1 1956.69 1135.24 1955.25 1133.1 1959.51 1138.83 1957.89 1136.85 1962.66 1142.14 1960.85 1140.31 1966.11 1145.12 1964.12 1143.48 1969.82 1147.76 1967.68 1146.31 1973.78 1150.04 1971.48 1148.78 1977.95 1151.92 1975.51 1150.88 1982.3 1153.38 1979.74 1152.58 1986.83 1154.42 1984.18 1153.87 1991.52 1155 1988.8 1154.72 1996.37 1155.11 1993.63 1155.11 2001.2 1154.72 1998.48 1155 2005.82 1153.87 2003.17 1154.42 2010.26 1152.58 2007.7 1153.38 2014.49 1150.88 2012.05 1151.92 2018.52 1148.78 2016.22 1150.04 2022.32 1146.31 2020.18 1147.76 2025.88 1143.48 2023.89 1145.12 2029.15 1140.31 2027.34 1142.14 2032.11 1136.85 2030.49 1138.83 2034.75 1133.1 2033.31 1135.24 2037.01 1129.1 2035.78 1131.39 2038.9 1124.88 2037.88 1127.3 2040.37 1120.45 2039.58 1122.99 2041.41 1115.85 2040.87 1118.48 2042 1111.08 2041.72 1113.77 2042.11 1106.15 2042.11 1108.85 2041.72 1101.23 2042 1103.92 2040.87 1096.52 2041.41 1099.15 2039.58 1092.01 2040.37 1094.55 2037.88 1087.7 2038.9 1090.12 2035.78 1083.61 2037.01 1085.9 2033.31 1079.76 2034.75 1081.9 2030.49 1076.17 2032.11 1078.15 2027.34 1072.86 2029.15 1074.69 2023.89 1069.88 2025.88 1071.52 2020.18 1067.24 2022.32 1068.69 2016.22 1064.96 2018.52 1066.22 2012.05 1063.08 2014.49 1064.12 2007.7 1061.62 2010.26 1062.42 2003.17 1060.58 2005.82 1061.13 1998.48 1060 2001.2 1060.28 1993.63 1059.89 1996.37 1059.89 1988.8 1060.28 1991.52 1060 1984.18 1061.13 1986.83 1060.58 1979.74 1062.42 1982.3 1061.62 1975.51 1064.12 1977.95 1063.08 1971.48 1066.22 1973.78 1064.96 1967.68 1068.69 1969.82 1067.24 1964.12 1071.52 1966.11 1069.88 1960.85 1074.69 1962.66 1072.86 1957.89 1078.15 1959.51 1076.17 1955.25 1081.9 1956.69 1079.76 1952.99 1085.9 1954.22 1083.61 1951.1 1090.12 1952.12 1087.7 1949.63 1094.55 1950.42 1092.01 1948.59 1099.15 1949.13 1096.52 1948 1103.92 1948.28 1101.23 1947.89 1108.85 1947.89 1106.15Z" fill="#000000" fill-rule="nonzero" fill-opacity="1"/><path d="M0 0 133.04 132.676" stroke="#000000" stroke-width="53.8542" stroke-linecap="butt" stroke-linejoin="miter" stroke-miterlimit="8" stroke-opacity="1" fill="none" fill-rule="evenodd" transform="matrix(1 0 0 -1 1615 1032.68)"/><path d="M1852 900 1942.61 1055.02" stroke="#000000" stroke-width="53.8542" stroke-linecap="butt" stroke-linejoin="miter" stroke-miterlimit="8" stroke-opacity="1" fill="none" fill-rule="evenodd"/><path d="M0 0 126.569 158.093" stroke="#000000" stroke-width="53.8542" stroke-linecap="butt" stroke-linejoin="miter" stroke-miterlimit="8" stroke-opacity="1" fill="none" fill-rule="evenodd" transform="matrix(1 0 0 -1 2047 1055.09)"/></g></g></svg>